<?xml version="1.0" encoding="iso-8859-1"?>
<!-- Uploaded to: SVG Repo, www.svgrepo.com, Generator: SVG Repo Mixer Tools -->
<svg version="1.1" id="Layer_1" xmlns="http://www.w3.org/2000/svg" xmlns:xlink="http://www.w3.org/1999/xlink" 
	 viewBox="0 0 507.93 507.93" xml:space="preserve">
<g>
	<rect x="103.527" y="225.828" style="fill:#FFFFFF;" width="300.9" height="253.9"/>
	<polygon style="fill:#FFFFFF;" points="53.427,197.528 454.427,197.528 253.927,32.428 	"/>
</g>
<path style="fill:#56ACE0;" d="M253.927,68.928l-20.1,16.6h12.7c7.8,0,14.1,6.3,14.1,14.1s-6.3,14.1-14.1,14.1h-47l-21,17.3h19.9
	c7.8,0,14.1,6.3,14.1,14.1s-6.3,14.1-14.1,14.1h-53.2c-0.3,0-0.5-0.1-0.8-0.1l-12.4,10.2h243.8L253.927,68.928z"/>
<rect x="202.427" y="337.028" style="fill:#FFC10D;" width="103" height="142.6"/>
<path style="fill:#194F82;" d="M501.627,199.828l-238.7-196.6c-5.2-4.3-12.7-4.3-17.9,0l-239.9,197.6c-4.6,3.8-6.3,10-4.3,15.7
	c2,5.6,7.3,9.3,13.3,9.3h61.1v268c0,7.8,6.3,14.1,14.1,14.1h329.2c7.8,0,14.1-6.3,14.1-14.1v-268h61.1c0.1,0,0.1,0,0.1,0
	c7.8,0,14.1-6.3,14.1-14.1C508.027,206.728,505.427,202.328,501.627,199.828z M305.427,479.628h-103v-142.6h103V479.628z
	 M404.427,479.628h-70.8v-156.7c0-7.8-6.3-14.1-14.1-14.1h-131.2c-7.8,0-14.1,6.3-14.1,14.1v156.7h-70.8v-253.8h300.9v253.8H404.427
	z M53.427,197.528l200.5-165.1l200.5,165.2h-401V197.528z"/>
</svg>